# xmcd CD database file
#
# Track frame offsets:
#	150
#	16217
#	29410
#	45542
#	59472
#	75970
#	94517
#	109845
#	128602
#	141325
#	153625
#	164645
#	179163
#	192340
#	204343
#	216633
#	230698
#	242595
#	254028
#	264168
#	279795
#	292140
#
# Disc length: 4108 seconds
#
# Revision: 0
# Processed by: cddbd v1.4PL0 Copyright (c) Steve Scherf et al.
# Submitted via: Feurio! 1.65.3ß - http://www.feurio.com
#
DISCID=47100a16
DTITLE=Michelle Shocked - Short Sharp Shocked and Captain Swing
DYEAR=1989
DGENRE=country
TTITLE0=When I Grow Up
TTITLE1=Hello Hopeville
TTITLE2=Memories of East Texas
TTITLE3=(Making the Run to) Gladewater
TTITLE4=Graffiti Limbo
TTITLE5=If Love Was a Train
TTITLE6=Anchorage
TTITLE7=The L&N Don't Stop Here Anymore
TTITLE8=V. F. D.
TTITLE9=Black Widow
TTITLE10=Fog Town (Bonus)
TTITLE11=God is a Real Estate Developer
TTITLE12=On the Greener Side
TTITLE13=Silent Ways
TTITLE14=Sleep Keeps Me Awake
TTITLE15=The Cement Lament
TTITLE16=(Don't You Mess Around With) My Little Sister
TTITLE17=Looks Like Mona Lisa (Smells Like Tuna Fish)
TTITLE18=Too Little Too Late
TTITLE19=Streetcorner Ambassador
TTITLE20=Must Be Luff
TTITLE21=Russian Roulette (Bonus)
EXTD=(c)Phonogram 1988 and 1989\r\n
EXTT0=Songwriter: Michelle Shocked\r\n
EXTT1=Songwriter: Michelle Shocked\r\n
EXTT2=Songwriter: Michelle Shocked\r\n
EXTT3=Songwriter: Michelle Shocked\r\n
EXTT4=Songwriter: Michelle Shocked\r\n
EXTT5=Songwriter: Michelle Shocked\r\n
EXTT6=Songwriter: Michelle Shocked\r\n
EXTT7=Songwriter: Jean Ritchie\r\n
EXTT8=Songwriter: Michelle Shocked\r\n
EXTT9=Songwriter: Michelle Shocked\r\n
EXTT10=Songwriter: Michelle Shocked\r\n
EXTT11=Songwriter: Michelle Shocked and Mat Fox\r\n
EXTT12=Songwriter: Michelle Shocked\r\n
EXTT13=Songwriter: Michelle Shocked\r\n
EXTT14=Songwriter: Michelle Shocked\r\n
EXTT15=Songwriter: Michelle Shocked\r\n
EXTT16=Songwriter: Michelle Shocked\r\n
EXTT17=Songwriter: Michelle Shocked\r\n
EXTT18=Songwriter: Michelle Shocked\r\n
EXTT19=Songwriter: Michelle Shocked\r\n
EXTT20=Songwriter: Michelle Shocked\r\n
EXTT21=Songwriter: Michelle Shocked\r\n
PLAYORDER=
